# 3ds Max Wavefront OBJ Exporter v0.97b - (c)2007 guruware
# File Created: 20.01.2015 21:18:47

mtllib pin.mtl

#
# object LitePin
#

v  0.0535 0.0000 0.0002
v  0.0270 0.0000 0.0461
v  0.0270 -0.3937 0.0461
v  0.0535 -0.3937 0.0002
v  -0.0260 0.0000 0.0461
v  -0.0260 -0.3937 0.0461
v  -0.0524 0.0000 0.0002
v  -0.0524 -0.3937 0.0002
v  -0.0260 0.0000 -0.0457
v  -0.0260 -0.3937 -0.0457
v  0.0270 0.0000 -0.0457
v  0.0270 -0.3937 -0.0457
v  -0.0388 0.3719 -0.0680
v  -0.0782 0.3719 0.0002
v  -0.0388 0.3719 0.0684
v  0.0399 0.3719 0.0684
v  0.0793 0.3719 0.0002
v  0.0399 0.3719 -0.0680
v  0.0399 0.0000 0.0684
v  0.0793 0.0000 0.0002
v  0.0399 0.0000 -0.0680
v  -0.0388 0.0000 -0.0680
v  -0.0782 0.0000 0.0002
v  -0.0388 0.0000 0.0684
v  0.0261 0.0000 0.0445
v  0.0516 0.0000 0.0002
v  -0.0250 0.0000 0.0445
v  -0.0506 0.0000 0.0002
v  -0.0250 0.0000 -0.0441
v  0.0261 0.0000 -0.0441
# 30 vertices

vn 1.0000 0.0000 -0.0000
vn 0.5000 0.0000 0.8660
vn -0.5000 0.0000 0.8660
vn -1.0000 0.0000 -0.0000
vn -0.5000 0.0000 -0.8660
vn 0.5000 0.0000 -0.8660
vn 0.0000 1.0000 -0.0000
vn 0.8660 0.0000 0.5000
vn 0.8660 0.0000 -0.5000
vn 0.0000 0.0000 -1.0000
vn -0.8660 0.0000 -0.5000
vn -0.8660 0.0000 0.5000
vn -0.0000 0.0000 1.0000
vn 0.0000 -1.0000 -0.0000
# 14 vertex normals

vt 0.7500 0.0000 1.0000
vt 0.5833 0.0000 1.0000
vt 0.5833 1.0000 1.0000
vt 0.7500 1.0000 1.0000
vt 0.4167 0.0000 1.0000
vt 0.4167 1.0000 1.0000
vt 0.2500 0.0000 1.0000
vt 0.2500 1.0000 1.0000
vt 0.0833 0.0000 1.0000
vt 0.0833 1.0000 1.0000
vt -0.0833 0.0000 1.0000
vt -0.0833 1.0000 1.0000
vt 0.9167 0.0000 1.0000
vt 0.9167 1.0000 1.0000
vt 0.0670 0.2500 -0.2500
vt 0.5000 0.0000 -0.2500
vt 0.9330 0.2500 -0.2500
vt 0.9330 0.7500 -0.2500
vt 0.5000 1.0000 -0.2500
vt 0.0670 0.7500 -0.2500
# 20 texture coords

g LitePin
usemtl wire_086086086
s 8
f 1/1/1 2/2/2 3/3/2 
f 3/3/2 4/4/1 1/1/1 
f 2/2/2 5/5/3 6/6/3 
f 6/6/3 3/3/2 2/2/2 
f 5/5/3 7/7/4 8/8/4 
f 8/8/4 6/6/3 5/5/3 
f 7/7/4 9/9/5 10/10/5 
f 10/10/5 8/8/4 7/7/4 
f 9/9/5 11/11/6 12/12/6 
f 12/12/6 10/10/5 9/9/5 
f 11/13/6 1/1/1 4/4/1 
f 4/4/1 12/14/6 11/13/6 
s 1
f 13/15/7 14/16/7 15/17/7 
f 15/17/7 16/18/7 17/19/7 
f 13/15/7 15/17/7 17/19/7 
f 18/20/7 13/15/7 17/19/7 
s off
f 19/2/8 20/1/8 17/19/8 
f 17/19/8 16/18/8 19/2/8 
f 20/1/9 21/13/9 18/20/9 
f 18/20/9 17/19/9 20/1/9 
f 21/11/10 22/9/10 13/15/10 
f 13/15/10 18/20/10 21/11/10 
f 22/9/11 23/7/11 14/16/11 
f 14/16/11 13/15/11 22/9/11 
f 23/7/12 24/5/12 15/17/12 
f 15/17/12 14/16/12 23/7/12 
f 24/5/13 19/2/13 16/18/13 
f 16/18/13 15/17/13 24/5/13 
f 20/1/14 19/2/14 25/2/14 
f 25/2/14 26/1/14 20/1/14 
f 19/2/14 24/5/14 27/5/14 
f 27/5/14 25/2/14 19/2/14 
f 24/5/14 23/7/14 28/7/14 
f 28/7/14 27/5/14 24/5/14 
f 23/7/14 22/9/14 29/9/14 
f 29/9/14 28/7/14 23/7/14 
f 22/9/14 21/11/14 30/11/14 
f 30/11/14 29/9/14 22/9/14 
f 21/13/14 20/1/14 26/1/14 
f 26/1/14 30/13/14 21/13/14 
f 26/1/7 25/2/7 2/2/7 
f 2/2/7 1/1/7 26/1/7 
f 25/2/7 27/5/7 5/5/7 
f 5/5/7 2/2/7 25/2/7 
f 27/5/7 28/7/7 7/7/7 
f 7/7/7 5/5/7 27/5/7 
f 28/7/7 29/9/7 9/9/7 
f 9/9/7 7/7/7 28/7/7 
f 29/9/7 30/11/7 11/11/7 
f 11/11/7 9/9/7 29/9/7 
f 30/13/7 26/1/7 1/1/7 
f 1/1/7 11/13/7 30/13/7 
f 10/10/14 4/4/14 3/3/14 
f 3/3/14 8/8/14 10/10/14 
f 10/10/14 12/12/14 4/4/14 
f 6/6/14 8/8/14 3/3/14 
# 56 faces

